<svg xmlns="http://www.w3.org/2000/svg" version="1.1" xmlns:xlink="http://www.w3.org/1999/xlink" xmlns:svgjs="http://svgjs.dev/svgjs" width="1000" height="348" viewBox="0 0 1000 348"><g transform="matrix(1,0,0,1,-0.6060606060606233,-0.09952511994742963)"><svg viewBox="0 0 396 138" data-background-color="#ffffff" preserveAspectRatio="xMidYMid meet" height="348" width="1000" xmlns="http://www.w3.org/2000/svg" xmlns:xlink="http://www.w3.org/1999/xlink"><g id="tight-bounds" transform="matrix(1,0,0,1,0.2400000000000091,0.03946685791018467)"><svg viewBox="0 0 395.52 137.92106514503092" height="137.92106514503092" width="395.52"><g><svg viewBox="0 0 395.52 137.92106514503092" height="137.92106514503092" width="395.52"><g><svg viewBox="0 0 395.52 137.92106514503092" height="137.92106514503092" width="395.52"><g id="textblocktransform"><svg viewBox="0 0 395.52 137.92106514503092" height="137.92106514503092" width="395.52" id="textblock"><g><svg viewBox="0 0 395.52 137.92106514503092" height="137.92106514503092" width="395.52"><g transform="matrix(1,0,0,1,0,0)"><svg width="395.52" viewBox="117.68000793457031 -39.000003814697266 315.45001220703125 94.50000762939453" height="137.92106514503092" data-palette-color="url(#31993b5c-bc6f-47a7-b21f-b289616f1864)"><svg></svg><svg></svg><g class="wordmark-text-0" data-fill-palette-color="primary" id="text-0"></g></svg></g></svg></g></svg></g></svg></g></svg></g><defs></defs><mask id="09e8ffc5-76b2-4c73-815e-daf48f222e68"><g id="SvgjsG1937"><svg viewBox="0 0 395.52 137.92106514503092" height="137.92106514503092" width="395.52"><g><svg viewBox="0 0 395.52 137.92106514503092" height="137.92106514503092" width="395.52"><g><svg viewBox="0 0 395.52 137.92106514503092" height="137.92106514503092" width="395.52"><g id="SvgjsG1936"><svg viewBox="0 0 395.52 137.92106514503092" height="137.92106514503092" width="395.52" id="SvgjsSvg1935"><g><svg viewBox="0 0 395.52 137.92106514503092" height="137.92106514503092" width="395.52"><g transform="matrix(1,0,0,1,0,0)"><svg width="395.52" viewBox="117.68000793457031 -39.000003814697266 315.45001220703125 94.50000762939453" height="137.92106514503092" data-palette-color="url(#31993b5c-bc6f-47a7-b21f-b289616f1864)"><svg></svg><svg></svg><g class="wordmark-text-0" data-fill-palette-color="primary" id="SvgjsG1934"><path xmlns="http://www.w3.org/2000/svg" d="M133.13-30.5l8 21.9 6.5-16.65c0.633-1.633 1.143-2.967 1.53-4 0.38-1.033 0.67-1.883 0.87-2.55 0.2-0.667 0.333-1.2 0.4-1.6 0.067-0.4 0.1-0.783 0.1-1.15v0c0-0.8-0.3-1.327-0.9-1.58-0.6-0.247-1.8-0.37-3.6-0.37v0-2h14.2v2c-2.767 0-4.683 1.35-5.75 4.05v0l-13.15 32.95h-3.7l-11.95-29.2c-0.667-1.567-1.267-2.85-1.8-3.85-0.533-1-1.1-1.793-1.7-2.38-0.6-0.58-1.257-0.98-1.97-1.2-0.72-0.213-1.563-0.32-2.53-0.32v0-2.05h18.9v2.05c-0.867 0.033-1.59 0.083-2.17 0.15-0.587 0.067-1.047 0.173-1.38 0.32-0.333 0.153-0.567 0.353-0.7 0.6-0.133 0.253-0.2 0.563-0.2 0.93v0c0 0.467 0.083 1.017 0.25 1.65 0.167 0.633 0.417 1.4 0.75 2.3zM181.43-8.65l-1.15-3h-14.15c-1.567 3.533-2.35 5.983-2.35 7.35v0c0 1 0.373 1.633 1.12 1.9 0.753 0.267 1.88 0.4 3.38 0.4v0 2h-13.7v-2c0.8-0.1 1.49-0.233 2.07-0.4 0.587-0.167 1.107-0.4 1.56-0.7 0.447-0.3 0.837-0.693 1.17-1.18 0.333-0.48 0.65-1.07 0.95-1.77v0l13.15-32.95h3.7l11.95 29.2c0.7 1.7 1.293 3.033 1.78 4 0.48 0.967 0.993 1.707 1.54 2.22 0.553 0.52 1.19 0.88 1.91 1.08 0.713 0.2 1.637 0.35 2.77 0.45v0 2.05h-18.9v-2.05c1.6-0.067 2.75-0.233 3.45-0.5 0.7-0.267 1.05-0.8 1.05-1.6v0c0-0.467-0.117-1.067-0.35-1.8-0.233-0.733-0.55-1.633-0.95-2.7zM173.23-29.8l-5.95 15.15h11.9l-5.75-15.15zM235.88 0.5h-6.7l-22.15-31.55h-0.2v21.5c0 1.667 0.06 2.983 0.18 3.95 0.113 0.967 0.363 1.717 0.75 2.25 0.38 0.533 0.913 0.883 1.6 1.05 0.68 0.167 1.57 0.267 2.67 0.3v0 2h-14.85v-2c1.233-0.033 2.223-0.143 2.97-0.33 0.753-0.18 1.337-0.52 1.75-1.02 0.42-0.5 0.697-1.21 0.83-2.13 0.133-0.913 0.2-2.153 0.2-3.72v0-20.1c0-1.4-0.067-2.557-0.2-3.47-0.133-0.92-0.383-1.647-0.75-2.18-0.367-0.533-0.893-0.91-1.58-1.13-0.68-0.213-1.587-0.353-2.72-0.42v0-2h13.95l20.15 28.9h0.2v-19.35c0-1.633-0.057-2.943-0.17-3.93-0.12-0.98-0.37-1.737-0.75-2.27-0.387-0.533-0.923-0.883-1.61-1.05-0.68-0.167-1.57-0.267-2.67-0.3v0-2h14.85v2c-1.233 0.033-2.223 0.14-2.97 0.32-0.753 0.187-1.337 0.53-1.75 1.03-0.42 0.5-0.697 1.217-0.83 2.15-0.133 0.933-0.2 2.167-0.2 3.7v0zM265.53-39v0c3.033 0 5.867 0.517 8.5 1.55 2.633 1.033 4.927 2.457 6.88 4.27 1.947 1.82 3.48 3.953 4.6 6.4 1.113 2.453 1.67 5.08 1.67 7.88v0c0 3.433-0.84 6.59-2.52 9.47-1.687 2.887-4.047 5.313-7.08 7.28v0c-0.567 0.367-1.11 0.69-1.63 0.97-0.513 0.287-1.103 0.58-1.77 0.88-0.667 0.3-1.44 0.617-2.32 0.95-0.887 0.333-1.947 0.717-3.18 1.15v0c-0.733 0.267-1.36 0.5-1.88 0.7-0.513 0.2-0.97 0.393-1.37 0.58-0.4 0.18-0.757 0.363-1.07 0.55-0.32 0.18-0.63 0.37-0.93 0.57v0 0.2c0.233-0.033 0.533-0.057 0.9-0.07 0.367-0.02 0.717-0.03 1.05-0.03v0c1.433 0 2.79 0.16 4.07 0.48 1.287 0.313 2.557 0.653 3.81 1.02 1.247 0.367 2.503 0.71 3.77 1.03 1.267 0.313 2.6 0.47 4 0.47v0c1.6 0 2.85-0.283 3.75-0.85 0.9-0.567 1.6-1.517 2.1-2.85v0h1.85c0.067 0.433 0.117 0.833 0.15 1.2 0.033 0.367 0.05 0.683 0.05 0.95v0c0 1.033-0.233 1.993-0.7 2.88-0.467 0.88-1.117 1.647-1.95 2.3-0.833 0.647-1.817 1.153-2.95 1.52-1.133 0.367-2.35 0.55-3.65 0.55v0c-1.867 0-3.6-0.317-5.2-0.95-1.6-0.633-3.133-1.333-4.6-2.1-1.467-0.767-2.867-1.467-4.2-2.1-1.333-0.633-2.65-0.95-3.95-0.95v0c-0.9 0-1.633 0.15-2.2 0.45-0.567 0.3-1.073 0.627-1.52 0.98-0.453 0.347-0.903 0.67-1.35 0.97-0.453 0.3-0.997 0.45-1.63 0.45v0c-0.567 0-1.017-0.133-1.35-0.4-0.333-0.267-0.5-0.6-0.5-1v0c0-0.567 0.257-1.09 0.77-1.57 0.52-0.487 1.48-1.113 2.88-1.88v0l6.3-3.55c-2.667-0.233-5.15-0.917-7.45-2.05-2.3-1.133-4.293-2.6-5.98-4.4-1.68-1.8-3.003-3.877-3.97-6.23-0.967-2.347-1.45-4.853-1.45-7.52v0c0-2.833 0.54-5.483 1.62-7.95 1.087-2.467 2.58-4.6 4.48-6.4 1.9-1.8 4.15-3.217 6.75-4.25 2.6-1.033 5.4-1.55 8.4-1.55zM265.53-1.5v0c1.967 0 3.75-0.41 5.35-1.23 1.6-0.813 2.957-1.97 4.07-3.47 1.12-1.5 1.987-3.317 2.6-5.45 0.62-2.133 0.93-4.5 0.93-7.1v0c0-2.6-0.31-4.95-0.93-7.05-0.613-2.1-1.48-3.883-2.6-5.35-1.113-1.467-2.47-2.6-4.07-3.4-1.6-0.8-3.383-1.2-5.35-1.2v0c-1.967 0-3.723 0.39-5.27 1.17-1.553 0.787-2.863 1.913-3.93 3.38-1.067 1.467-1.89 3.25-2.47 5.35-0.587 2.1-0.88 4.467-0.88 7.1v0c0 2.667 0.293 5.067 0.88 7.2 0.58 2.133 1.413 3.94 2.5 5.42 1.08 1.487 2.393 2.63 3.94 3.43 1.553 0.8 3.297 1.2 5.23 1.2zM326.88-26.1v10.6c0 2.833-0.31 5.26-0.93 7.28-0.613 2.013-1.57 3.67-2.87 4.97-1.3 1.3-2.977 2.25-5.03 2.85-2.047 0.6-4.503 0.9-7.37 0.9v0c-5.367 0-9.293-1.127-11.78-3.38-2.48-2.247-3.72-5.837-3.72-10.77v0-13.7c0-1.3-0.017-2.393-0.05-3.28-0.033-0.88-0.083-1.62-0.15-2.22-0.067-0.6-0.16-1.093-0.28-1.48-0.113-0.38-0.253-0.703-0.42-0.97v0c-0.3-0.467-0.733-0.783-1.3-0.95-0.567-0.167-1.433-0.25-2.6-0.25v0-2h17.95v2c-1.4 0-2.433 0.077-3.1 0.23-0.667 0.147-1.183 0.437-1.55 0.87v0c-0.233 0.267-0.427 0.59-0.58 0.97-0.147 0.387-0.263 0.887-0.35 1.5-0.08 0.62-0.137 1.38-0.17 2.28-0.033 0.9-0.05 2-0.05 3.3v0 13.1c0 3.8 0.807 6.607 2.42 8.42 1.62 1.82 4.113 2.73 7.48 2.73v0c6.867 0 10.3-3.817 10.3-11.45v0-11.55c0-1.4-0.027-2.6-0.08-3.6-0.047-1-0.13-1.85-0.25-2.55-0.113-0.7-0.263-1.283-0.45-1.75-0.18-0.467-0.403-0.85-0.67-1.15v0c-0.467-0.467-1.067-0.81-1.8-1.03-0.733-0.213-1.75-0.32-3.05-0.32v0-2h16.2v2c-1.233 0-2.183 0.09-2.85 0.27-0.667 0.187-1.183 0.513-1.55 0.98v0c-0.267 0.3-0.483 0.69-0.65 1.17-0.167 0.487-0.3 1.09-0.4 1.81-0.1 0.713-0.177 1.57-0.23 2.57-0.047 1-0.07 2.2-0.07 3.6zM352.68-2v2h-17.85v-2c1.133-0.033 2.04-0.143 2.72-0.33 0.687-0.18 1.213-0.52 1.58-1.02 0.367-0.5 0.617-1.21 0.75-2.13 0.133-0.913 0.2-2.153 0.2-3.72v0-20.1c0-1.4-0.06-2.557-0.18-3.47-0.113-0.92-0.337-1.647-0.67-2.18-0.333-0.533-0.81-0.91-1.43-1.13-0.613-0.213-1.437-0.353-2.47-0.42v0-2h16.85v2c-1.033 0.067-1.86 0.207-2.48 0.42-0.613 0.22-1.087 0.597-1.42 1.13-0.333 0.533-0.56 1.26-0.68 2.18-0.113 0.913-0.17 2.07-0.17 3.47v0 20.1c0 1.567 0.057 2.807 0.17 3.72 0.12 0.92 0.37 1.63 0.75 2.13 0.387 0.5 0.92 0.84 1.6 1.02 0.687 0.187 1.597 0.297 2.73 0.33zM357.93 0l-0.75-12.75h1.95c0.467 3.167 1.733 5.657 3.8 7.47 2.067 1.82 4.617 2.73 7.65 2.73v0c1.233 0 2.367-0.15 3.4-0.45 1.033-0.3 1.917-0.727 2.65-1.28 0.733-0.547 1.3-1.197 1.7-1.95 0.4-0.747 0.6-1.587 0.6-2.52v0c0-0.8-0.127-1.493-0.38-2.08-0.247-0.58-0.72-1.147-1.42-1.7-0.7-0.547-1.657-1.103-2.87-1.67-1.22-0.567-2.797-1.217-4.73-1.95v0c-3.9-1.5-6.783-3.243-8.65-5.23-1.867-1.98-2.8-4.32-2.8-7.02v0c0-1.567 0.3-3 0.9-4.3 0.6-1.3 1.443-2.417 2.53-3.35 1.08-0.933 2.38-1.66 3.9-2.18 1.513-0.513 3.187-0.77 5.02-0.77v0c1.7 0 3.3 0.267 4.8 0.8 1.5 0.533 2.983 1.333 4.45 2.4v0l0.9-2.5h1.2l0.55 10.8h-1.95c-0.8-2.733-2.05-4.823-3.75-6.27-1.7-1.453-3.667-2.18-5.9-2.18v0c-2.067 0-3.743 0.507-5.03 1.52-1.28 1.02-1.92 2.33-1.92 3.93v0c0 0.7 0.117 1.323 0.35 1.87 0.233 0.553 0.667 1.08 1.3 1.58 0.633 0.5 1.5 1.007 2.6 1.52 1.1 0.52 2.517 1.097 4.25 1.73v0c2.333 0.9 4.323 1.807 5.97 2.72 1.653 0.92 3.003 1.903 4.05 2.95 1.053 1.053 1.83 2.163 2.33 3.33 0.5 1.167 0.75 2.45 0.75 3.85v0c0 1.7-0.367 3.25-1.1 4.65-0.733 1.4-1.757 2.6-3.07 3.6-1.32 1-2.89 1.783-4.71 2.35-1.813 0.567-3.82 0.85-6.02 0.85v0c-2 0-3.8-0.277-5.4-0.83-1.6-0.547-3.25-1.437-4.95-2.67v0l-1 3zM427.88-30.45v22.4c0 1.267 0.057 2.29 0.17 3.07 0.12 0.787 0.37 1.387 0.75 1.8 0.387 0.42 0.92 0.713 1.6 0.88 0.687 0.167 1.597 0.267 2.73 0.3v0 2h-18.35v-2c1.233-0.033 2.223-0.133 2.97-0.3 0.753-0.167 1.337-0.45 1.75-0.85 0.42-0.4 0.697-0.967 0.83-1.7 0.133-0.733 0.2-1.683 0.2-2.85v0-10.45h-18.55v10.1c0 1.267 0.067 2.29 0.2 3.07 0.133 0.787 0.4 1.387 0.8 1.8 0.4 0.42 0.973 0.713 1.72 0.88 0.753 0.167 1.747 0.267 2.98 0.3v0 2h-18.3v-2c1.133-0.033 2.043-0.133 2.73-0.3 0.68-0.167 1.203-0.45 1.57-0.85 0.367-0.4 0.617-0.967 0.75-1.7 0.133-0.733 0.2-1.683 0.2-2.85v0-23.1c0-1.167-0.06-2.11-0.18-2.83-0.113-0.713-0.337-1.28-0.67-1.7-0.333-0.413-0.807-0.697-1.42-0.85-0.62-0.147-1.43-0.253-2.43-0.32v0-2h17.25v2c-1.133 0.033-2.043 0.133-2.73 0.3-0.68 0.167-1.203 0.467-1.57 0.9-0.367 0.433-0.61 1.033-0.73 1.8-0.113 0.767-0.17 1.783-0.17 3.05v0 9.2h18.55v-9.55c0-1.167-0.067-2.11-0.2-2.83-0.133-0.713-0.383-1.28-0.75-1.7-0.367-0.413-0.893-0.697-1.58-0.85-0.68-0.147-1.587-0.253-2.72-0.32v0-2h17.3v2c-1 0.033-1.81 0.133-2.43 0.3-0.613 0.167-1.087 0.467-1.42 0.9-0.333 0.433-0.56 1.033-0.68 1.8-0.113 0.767-0.17 1.783-0.17 3.05z" fill="white" fill-rule="nonzero" stroke="none" stroke-width="1" stroke-linecap="butt" stroke-linejoin="miter" stroke-miterlimit="10" stroke-dasharray="" stroke-dashoffset="0" font-family="none" font-weight="none" font-size="none" text-anchor="none" style="mix-blend-mode: normal" opacity="1"></path><path xmlns="http://www.w3.org/2000/svg" d="M164.68 46.35l-1.15-3h-14.15c-1.567 3.533-2.35 5.983-2.35 7.35v0c0 1 0.377 1.633 1.13 1.9 0.747 0.267 1.87 0.4 3.37 0.4v0 2h-13.7v-2c0.8-0.1 1.493-0.233 2.08-0.4 0.58-0.167 1.097-0.4 1.55-0.7 0.447-0.3 0.837-0.693 1.17-1.18 0.333-0.48 0.65-1.07 0.95-1.77v0l13.15-32.95h3.7l11.95 29.2c0.7 1.7 1.293 3.033 1.78 4 0.48 0.967 0.997 1.707 1.55 2.22 0.547 0.52 1.18 0.88 1.9 1.08 0.713 0.2 1.637 0.35 2.77 0.45v0 2.05h-18.9v-2.05c1.6-0.067 2.75-0.233 3.45-0.5 0.7-0.267 1.05-0.8 1.05-1.6v0c0-0.467-0.117-1.067-0.35-1.8-0.233-0.733-0.55-1.633-0.95-2.7zM156.48 25.2l-5.95 15.15h11.9l-5.75-15.15zM213.68 26.15v0c0 2.767-0.8 5.083-2.4 6.95-1.6 1.867-4.15 3.117-7.65 3.75v0l11.6 13.3c0.8 0.933 1.75 1.64 2.85 2.12 1.1 0.487 2.217 0.73 3.35 0.73v0 2h-11.85l-12.4-15.2c-0.833-1-1.557-1.677-2.17-2.03-0.62-0.347-1.197-0.52-1.73-0.52v0 9.8c0 1.233 0.083 2.24 0.25 3.02 0.167 0.787 0.5 1.397 1 1.83 0.5 0.433 1.227 0.723 2.18 0.87 0.947 0.153 2.22 0.23 3.82 0.23v0 2h-19.85v-2c1.1 0 1.993-0.077 2.68-0.23 0.68-0.147 1.213-0.43 1.6-0.85 0.38-0.413 0.637-0.997 0.77-1.75 0.133-0.747 0.2-1.703 0.2-2.87v0-23.1c0-1.167-0.05-2.11-0.15-2.83-0.1-0.713-0.317-1.28-0.65-1.7-0.333-0.413-0.807-0.697-1.42-0.85-0.62-0.147-1.447-0.253-2.48-0.32v0-2h17.3c4.833 0 8.567 0.85 11.2 2.55 2.633 1.7 3.95 4.067 3.95 7.1zM193.28 20.15v14.1h3.25c3.133 0 5.477-0.61 7.03-1.83 1.547-1.213 2.32-3.22 2.32-6.02v0c0-2.133-0.65-3.85-1.95-5.15-1.3-1.3-3.1-1.95-5.4-1.95v0h-4.35c-0.6 0-0.9 0.283-0.9 0.85zM223.13 55l-0.75-12.75h1.95c0.467 3.167 1.733 5.657 3.8 7.47 2.067 1.82 4.617 2.73 7.65 2.73v0c1.233 0 2.367-0.15 3.4-0.45 1.033-0.3 1.917-0.727 2.65-1.28 0.733-0.547 1.3-1.197 1.7-1.95 0.4-0.747 0.6-1.587 0.6-2.52v0c0-0.8-0.123-1.493-0.37-2.08-0.253-0.58-0.73-1.147-1.43-1.7-0.7-0.547-1.657-1.103-2.87-1.67-1.22-0.567-2.797-1.217-4.73-1.95v0c-3.9-1.5-6.783-3.243-8.65-5.23-1.867-1.98-2.8-4.32-2.8-7.02v0c0-1.567 0.3-3 0.9-4.3 0.6-1.3 1.443-2.417 2.53-3.35 1.08-0.933 2.38-1.66 3.9-2.18 1.513-0.513 3.187-0.77 5.02-0.77v0c1.7 0 3.3 0.267 4.8 0.8 1.5 0.533 2.983 1.333 4.45 2.4v0l0.9-2.5h1.2l0.55 10.8h-1.95c-0.8-2.733-2.05-4.823-3.75-6.27-1.7-1.453-3.667-2.18-5.9-2.18v0c-2.067 0-3.74 0.507-5.02 1.52-1.287 1.02-1.93 2.33-1.93 3.93v0c0 0.7 0.117 1.323 0.35 1.87 0.233 0.553 0.667 1.08 1.3 1.58 0.633 0.5 1.5 1.007 2.6 1.52 1.1 0.52 2.517 1.097 4.25 1.73v0c2.333 0.9 4.327 1.807 5.98 2.72 1.647 0.92 2.997 1.903 4.05 2.95 1.047 1.053 1.82 2.163 2.32 3.33 0.5 1.167 0.75 2.45 0.75 3.85v0c0 1.7-0.367 3.25-1.1 4.65-0.733 1.4-1.757 2.6-3.07 3.6-1.32 1-2.887 1.783-4.7 2.35-1.82 0.567-3.83 0.85-6.03 0.85v0c-2 0-3.8-0.277-5.4-0.83-1.6-0.547-3.25-1.437-4.95-2.67v0l-1 3zM267.18 21v12.7c2.133 0 3.85-0.067 5.15-0.2 1.3-0.133 2.31-0.41 3.03-0.83 0.713-0.413 1.22-1.02 1.52-1.82 0.3-0.8 0.533-1.883 0.7-3.25v0h1.85v14.65h-1.85c-0.2-1.333-0.467-2.4-0.8-3.2-0.333-0.8-0.867-1.41-1.6-1.83-0.733-0.413-1.727-0.677-2.98-0.79-1.247-0.12-2.92-0.18-5.02-0.18v0 10.3c0 1.067 0.143 1.967 0.43 2.7 0.28 0.733 0.753 1.323 1.42 1.77 0.667 0.453 1.55 0.77 2.65 0.95 1.1 0.187 2.45 0.28 4.05 0.28v0c1.9 0 3.507-0.133 4.82-0.4 1.32-0.267 2.413-0.733 3.28-1.4 0.867-0.667 1.567-1.56 2.1-2.68 0.533-1.113 0.983-2.52 1.35-4.22v0h2l-0.8 11.45h-33.9v-2c1.1-0.033 2-0.133 2.7-0.3 0.7-0.167 1.233-0.45 1.6-0.85 0.367-0.4 0.617-0.967 0.75-1.7 0.133-0.733 0.2-1.683 0.2-2.85v0-23.1c0-1.167-0.06-2.11-0.18-2.83-0.113-0.713-0.337-1.28-0.67-1.7-0.333-0.413-0.81-0.697-1.43-0.85-0.613-0.147-1.42-0.253-2.42-0.32v0-2h31.6l0.35 9.8h-2.15c-0.2-1.4-0.517-2.56-0.95-3.48-0.433-0.913-1.033-1.647-1.8-2.2-0.767-0.547-1.76-0.927-2.98-1.14-1.213-0.22-2.703-0.33-4.47-0.33v0h-5.65c-0.867 0-1.4 0.11-1.6 0.33-0.2 0.213-0.3 0.72-0.3 1.52zM331.23 55.5h-6.7l-22.15-31.55h-0.2v21.5c0 1.667 0.06 2.983 0.18 3.95 0.113 0.967 0.363 1.717 0.75 2.25 0.38 0.533 0.913 0.883 1.6 1.05 0.68 0.167 1.57 0.267 2.67 0.3v0 2h-14.85v-2c1.233-0.033 2.227-0.143 2.98-0.33 0.747-0.18 1.33-0.52 1.75-1.02 0.413-0.5 0.687-1.21 0.82-2.13 0.133-0.913 0.2-2.153 0.2-3.72v0-20.1c0-1.4-0.067-2.557-0.2-3.47-0.133-0.92-0.383-1.647-0.75-2.18-0.367-0.533-0.89-0.91-1.57-1.13-0.687-0.213-1.597-0.353-2.73-0.42v0-2h13.95l20.15 28.9h0.2v-19.35c0-1.633-0.057-2.943-0.17-3.93-0.12-0.98-0.37-1.737-0.75-2.27-0.387-0.533-0.92-0.883-1.6-1.05-0.687-0.167-1.58-0.267-2.68-0.3v0-2h14.85v2c-1.233 0.033-2.223 0.14-2.97 0.32-0.753 0.187-1.337 0.53-1.75 1.03-0.42 0.5-0.697 1.217-0.83 2.15-0.133 0.933-0.2 2.167-0.2 3.7v0zM363.53 46.35l-1.15-3h-14.15c-1.567 3.533-2.35 5.983-2.35 7.35v0c0 1 0.377 1.633 1.13 1.9 0.747 0.267 1.87 0.4 3.37 0.4v0 2h-13.7v-2c0.8-0.1 1.493-0.233 2.08-0.4 0.58-0.167 1.097-0.4 1.55-0.7 0.447-0.3 0.837-0.693 1.17-1.18 0.333-0.48 0.65-1.07 0.95-1.77v0l13.15-32.95h3.7l11.95 29.2c0.7 1.7 1.293 3.033 1.78 4 0.48 0.967 0.997 1.707 1.55 2.22 0.547 0.52 1.18 0.88 1.9 1.08 0.713 0.2 1.637 0.35 2.77 0.45v0 2.05h-18.9v-2.05c1.6-0.067 2.75-0.233 3.45-0.5 0.7-0.267 1.05-0.8 1.05-1.6v0c0-0.467-0.117-1.067-0.35-1.8-0.233-0.733-0.55-1.633-0.95-2.7zM355.33 25.2l-5.95 15.15h11.9l-5.75-15.15zM414.78 43.65l-0.8 11.35h-34.45v-2c1.1-0.033 2-0.133 2.7-0.3 0.7-0.167 1.233-0.45 1.6-0.85 0.367-0.4 0.617-0.967 0.75-1.7 0.133-0.733 0.2-1.683 0.2-2.85v0-23.1c0-1.167-0.057-2.11-0.17-2.83-0.12-0.713-0.347-1.28-0.68-1.7-0.333-0.413-0.807-0.697-1.42-0.85-0.62-0.147-1.43-0.253-2.43-0.32v0-2h17.25v2c-1.133 0.033-2.04 0.133-2.72 0.3-0.687 0.167-1.213 0.467-1.58 0.9-0.367 0.433-0.607 1.033-0.72 1.8-0.12 0.767-0.18 1.783-0.18 3.05v0 20.95c0 1.4 0.143 2.54 0.43 3.42 0.28 0.887 0.77 1.57 1.47 2.05 0.7 0.487 1.633 0.82 2.8 1 1.167 0.187 2.617 0.28 4.35 0.28v0c1.933 0 3.55-0.117 4.85-0.35 1.3-0.233 2.39-0.673 3.27-1.32 0.887-0.653 1.597-1.53 2.13-2.63 0.533-1.1 0.983-2.533 1.35-4.3v0z" fill="white" fill-rule="nonzero" stroke="none" stroke-width="1" stroke-linecap="butt" stroke-linejoin="miter" stroke-miterlimit="10" stroke-dasharray="" stroke-dashoffset="0" font-family="none" font-weight="none" font-size="none" text-anchor="none" style="mix-blend-mode: normal" opacity="1"></path></g></svg></g></svg></g></svg></g></svg></g></svg></g><defs></defs></svg></g></mask><linearGradient x1="0.054" x2="0.941" y1="0.5" y2="0.5" id="31993b5c-bc6f-47a7-b21f-b289616f1864"><stop stop-color="#0f3054" offset="0"></stop><stop stop-color="#3b8dcb" offset="0.498"></stop><stop stop-color="#0f3054" offset="1"></stop></linearGradient><rect width="395.5199890136719" height="137.9210662841797" fill="url(#31993b5c-bc6f-47a7-b21f-b289616f1864)" mask="url(#09e8ffc5-76b2-4c73-815e-daf48f222e68)" data-fill-palette-color="primary"></rect></svg><rect width="395.52" height="137.92106514503092" fill="none" stroke="none" visibility="hidden"></rect></g></svg></g></svg>